<svg width="130" height="138" viewBox="0 0 130 138" fill="none" xmlns="http://www.w3.org/2000/svg">
<path opacity="0.6" d="M99.0921 101.93C99.0921 130.387 86.0791 137.383 57.6221 137.383C29.1641 137.383 5.69413 124.311 7.30913 103.182C9.47813 74.8071 20.8401 61.3281 49.2981 61.3281C77.7551 61.3281 99.0921 73.4721 99.0921 101.93Z" fill="#EBEBF0"/>
<path d="M83.9843 118.589C72.6833 130.083 30.9023 129.987 19.5033 118.589C12.2393 111.324 15.2513 77.4978 19.5033 77.4978C21.9273 77.4978 83.4613 77.2918 83.9843 77.4978C93.5453 81.2558 91.1863 111.262 83.9843 118.589Z" fill="white"/>
<path d="M68.5664 50.3672H76.2504L74.9704 52.1122L72.0564 53.1222C72.0564 53.1222 68.9794 51.9862 68.5664 50.3672Z" fill="white"/>
<path d="M34.5677 128.602C34.5677 128.602 36.3857 130.839 32.4917 132.354C28.5977 133.868 24.2707 133.724 26.3617 131.92C28.4527 130.118 33.5657 128.569 34.5677 128.602Z" fill="#6B6B6B"/>
<path d="M35.6148 128.898C35.6148 128.898 33.6568 130.446 36.6638 132.459C39.6688 134.472 43.3528 135.164 41.9248 133.247C40.4978 131.33 36.4688 129.059 35.6148 128.898Z" fill="#6B6B6B"/>
<path d="M28.4511 97.6725C28.4511 97.6725 24.5771 109.539 25.4211 113.221C26.5751 118.254 32.8101 129.658 32.8101 129.658L34.7441 128.494C34.7441 128.494 31.1601 115.118 32.2781 111.432C33.3961 107.744 37.1941 96.3125 37.1941 96.3125L28.4511 97.6725Z" fill="#585858"/>
<path d="M41.7185 94.4609C41.7185 94.4609 45.5965 110.206 44.7535 113.888C43.5995 118.921 37.3645 130.324 37.3645 130.324L35.4315 129.161C35.4315 129.161 39.0145 115.784 37.8975 112.098C36.7795 108.411 32.9805 96.9789 32.9805 96.9789L41.7185 94.4609Z" fill="#585858"/>
<path d="M27.8757 69.0419C27.8757 69.0419 20.3037 71.6239 22.4667 80.6089C24.6307 89.5929 28.4537 97.6769 28.4537 97.6769C28.4537 97.6769 37.1787 97.1649 41.7217 94.4609C41.7217 94.4609 49.7257 62.1189 27.8757 69.0419Z" fill="#6B6B6B"/>
<path d="M30.786 73.7578L30.082 78.0608L33.815 80.0498L34.661 76.3108L30.786 73.7578Z" fill="white"/>
<path d="M33.421 79.8442C33.421 79.8442 37.913 97.0662 31.938 100.907L31.5 105.925L36.324 102.929C36.324 102.929 44.047 93.9592 34.197 78.3672L33.421 79.8442Z" fill="white"/>
<path d="M29.1451 66.5154L28.5391 71.2354C28.5391 71.2354 30.1551 73.6584 32.9821 70.6304L31.2781 65.9844L29.1451 66.5154Z" fill="#EDEDED"/>
<path d="M28.0233 59.0958C27.5643 59.9948 26.6483 61.7438 27.0613 63.0228C27.4693 64.3048 28.0533 66.5758 29.4093 67.2358C30.7673 67.8998 31.7103 66.7228 31.9923 66.1838C32.4393 65.3098 33.2213 60.2468 31.0773 58.7918C29.4553 57.6948 28.3713 58.4158 28.0233 59.0958Z" fill="#EDEDED"/>
<path d="M34.8403 58.3346C34.8403 58.3346 30.8043 60.7006 29.2773 60.1696C27.7493 59.6346 27.8023 61.1976 27.7853 61.3656C27.7703 61.5376 27.8313 63.7656 27.2873 63.7556C26.7393 63.7376 26.2713 60.9226 27.2423 59.1546C28.2073 57.3826 34.1383 55.9306 34.8403 58.3346Z" fill="#171B23"/>
<path d="M21.7711 72.1552C21.7711 72.1552 6.98077 78.2468 10.5436 83.4065C14.1067 88.5671 22.8093 93.6986 22.8093 93.6986L24.0704 92.1691C24.0704 92.1691 15.9961 86.2647 17.919 82.0276C18.7526 80.1892 23.4672 76.1669 23.4672 76.1669L21.7711 72.1552Z" fill="#EDEDED"/>
<path d="M44.7355 74.6094C44.7355 74.6094 54.6865 87.1314 49.0615 89.9044C43.4365 92.6764 33.3365 92.9224 33.3365 92.9224L32.9805 90.9714C32.9805 90.9714 42.9075 89.7464 43.2925 85.1104C43.4595 83.0994 41.3005 77.2894 41.3005 77.2894L44.7355 74.6094Z" fill="#EDEDED"/>
<path d="M18.6953 72.4926L20.2603 78.6426C20.2603 78.6426 29.3283 76.4856 27.7703 73.4586C26.2133 70.4316 21.1043 72.0286 18.6953 72.4926Z" fill="#6B6B6B"/>
<path d="M47.097 76.4988L41.692 79.8228C41.692 79.8228 36.686 71.9588 39.911 70.8718C43.138 69.7848 45.692 74.4888 47.097 76.4988Z" fill="#6B6B6B"/>
<path d="M35.355 90.5315C35.355 90.5315 34.02 89.6765 33.501 90.9465C32.982 92.2155 31.476 93.3435 32.846 93.5065C34.218 93.6675 34.418 92.8755 34.418 92.8755L35.355 90.5315Z" fill="#EDEDED"/>
<g clip-path="url(#clip0_9583_93612)">
<path d="M91.2832 39.1406H54.1348C50.9771 39.1406 48.5625 41.5553 48.5625 44.7129V67.002C48.5625 70.1596 50.9771 72.5742 54.1348 72.5742H91.2832C94.4408 72.5742 96.8555 70.1596 96.8555 67.002V44.7129C96.8555 41.5553 94.4408 39.1406 91.2832 39.1406ZM92.7691 67.7449L78.2812 57.3434L72.709 61.0582L66.951 57.3434L52.6488 67.7449L64.3506 55.6717L50.0484 44.5271L72.709 56.7861L95.1838 44.7129L81.0674 55.8574L92.7691 67.7449Z" fill="#8B8B8B"/>
</g>
<defs>
<clipPath id="clip0_9583_93612">
<rect width="48.293" height="48.293" fill="white" transform="translate(48.5625 31.7109)"/>
</clipPath>
</defs>
</svg>
