<svg width="24" height="24" viewBox="0 0 24 24" fill="none" xmlns="http://www.w3.org/2000/svg">
<path d="M12.818 12.1998L5.28601 13.4558C5.19942 13.4702 5.11815 13.5072 5.05039 13.563C4.98263 13.6189 4.93077 13.6915 4.90001 13.7738L2.30301 20.7308C2.05501 21.3708 2.72401 21.9808 3.33801 21.6738L21.338 12.6738C21.4627 12.6115 21.5675 12.5158 21.6408 12.3972C21.7141 12.2787 21.753 12.1421 21.753 12.0028C21.753 11.8634 21.7141 11.7268 21.6408 11.6083C21.5675 11.4898 21.4627 11.394 21.338 11.3318L3.33801 2.33177C2.72401 2.02477 2.05501 2.63577 2.30301 3.27477L4.90101 10.2318C4.93162 10.3142 4.98343 10.3871 5.0512 10.4431C5.11897 10.4991 5.2003 10.5362 5.28701 10.5508L12.819 11.8058C12.8654 11.8139 12.9074 11.8381 12.9376 11.8741C12.9679 11.9102 12.9845 11.9557 12.9845 12.0028C12.9845 12.0498 12.9679 12.0954 12.9376 12.1314C12.9074 12.1674 12.8654 12.1916 12.819 12.1998H12.818Z" fill="currentColor"/>
</svg>
